<svg width="1338" height="1449" viewBox="0 0 1338 1449" fill="none" xmlns="http://www.w3.org/2000/svg">
<rect x="322.531" y="34.2207" width="909" height="1006.05" rx="59.5" transform="rotate(16.6321 322.531 34.2207)" fill="#F0DB4F" stroke="#323330" stroke-width="55"/>
<rect x="381.33" y="120.333" width="909" height="1075.08" rx="59.5" transform="rotate(16.9818 381.33 120.333)" fill="#F0DB4F" stroke="#323330" stroke-width="55"/>
<rect x="430.349" y="217.129" width="909" height="957.745" rx="59.5" transform="rotate(16.0966 430.349 217.129)" fill="#F0DB4F" stroke="#323330" stroke-width="55"/>
<path d="M593 382L1102 529" stroke="#323330" stroke-width="55" stroke-linecap="round"/>
<path d="M593 493L1038 620" stroke="#323330" stroke-width="55" stroke-linecap="round"/>
<rect x="49.5" y="500.5" width="909" height="900" rx="59.5" fill="#F0DB4F" stroke="#323330" stroke-width="55"/>
<path d="M890.194 1180.67C882.608 1135 851.772 1096.65 760.444 1060.87C728.721 1046.79 693.352 1036.7 682.811 1013.48C679.067 999.969 678.574 992.356 680.939 984.173C687.737 957.624 720.544 949.346 746.553 956.958C763.301 962.382 779.163 974.849 788.719 994.735C833.447 966.76 833.349 966.95 864.579 947.729C853.151 930.601 847.043 922.702 839.555 915.376C812.659 886.353 776.01 871.414 717.391 872.556C707.243 873.793 696.998 875.124 686.85 876.362C657.59 883.499 629.708 898.343 613.354 918.231C564.291 971.994 578.281 1066.1 637.984 1104.83C696.8 1147.46 783.202 1157.17 794.236 1197.04C804.975 1245.85 757.095 1261.65 709.509 1256.03C674.436 1248.99 654.93 1231.77 633.846 1200.46C595.031 1222.16 595.031 1222.16 555.13 1244.33C564.588 1264.31 574.537 1273.35 590.4 1290.67C665.472 1364.23 853.348 1360.61 887.043 1249.28C888.421 1245.47 897.486 1219.97 890.194 1180.67ZM502.027 878.454H405.084C405.084 959.337 404.691 1039.65 404.691 1120.53C404.691 1172.01 407.449 1219.21 398.779 1233.67C384.593 1262.12 347.845 1258.6 331.096 1253.08C314.053 1244.99 305.383 1233.48 295.334 1217.21C292.575 1212.55 290.506 1208.93 289.816 1208.65C263.512 1224.16 237.305 1239.76 211 1255.27C224.104 1281.25 243.413 1303.8 268.141 1318.46C305.086 1339.87 354.74 1346.43 406.661 1334.92C440.453 1325.4 469.614 1305.71 484.885 1275.73C506.953 1236.43 502.224 1188.85 502.027 1136.23C502.52 1050.4 502.027 964.571 502.027 878.454Z" fill="#323330"/>
</svg>
